<svg width="184" height="66" viewBox="0 0 184 66" version="1.1" xmlns="http://www.w3.org/2000/svg" xmlns:xlink="http://www.w3.org/1999/xlink"><title>Page 1</title><defs><path id="path-1" d="M.214 42h26.651V.116H.215V42z"/></defs><g id="Symbols" stroke="none" stroke-width="1" fill="none" fill-rule="evenodd"><g id="Navigation" transform="translate(-218 -37)"><g transform="translate(170)" id="Group-4"><g id="Group-3"><g id="Group-5" transform="translate(48.333 37.267)"><g id="Page-1"><g id="Group-3" transform="translate(143 23)"><mask id="mask-2" fill="#fff"><use xlink:href="#path-1"/></mask><path d="M11.13 35.508c6.145-3.516 14.223-16.123 14.037-21.727-2.48 8.794-7.135 15.967-14.037 21.727m7.184-28.413l-.932 5.757c.348-2.874.682-5.733.23-8.621-.146-.93-.398-1.842-.549-2.77-.065-.402-.155-.971.058-1.195.203-.212.81-.164 1.199-.07 1.554.376 3.07.95 4.642 1.2 2.603.413 3.857 2.875 3.896 4.861.182 9.196-3.122 17.122-8.993 24.155-4.129 4.944-9.126 8.708-15.121 11.19-.34.141-.684.27-1.03.393-.054.019-.129-.019-.211-.033l2.54-1.61-.076-.121-3.584 1.236-.169-.309 7.78-5.13-.082-.141-3.082 1.41 7.93-7.374-.152-.116c-1.463.888-2.924 1.776-4.388 2.66-.087.053-.196.07-.233.082l7.213-8.818-.267-.215-2.056 2.425-.154-.097 1.34-2.094-.19-.117-2.492 3.045c3.765-6.07 7.159-12.229 6.933-19.583" id="Fill-1" fill="#F2242B" mask="url(#mask-2)"/></g><path d="M175.188 12.544C170.62 8.31 165.187 5.8 159.1 4.654c.467.36.98.637 1.526.786.485.133 1.048.017 1.505.198 1.936.77 3.919 1.467 5.745 2.457 2.503 1.357 4.88 2.955 7.312 4.45m2.769 6.812l.088.757h-1.169l-4.205-3.47-.193.235 1.978 1.929-.13.156-1.496-1.154-.125.144.52.7-5.808-3.561-.165.24 1.324 1.188c-7.59-4.323-15.305-5.436-23.49-.86 0-1.166-.225-2.114.052-2.87.439-1.197.198-2.369.272-3.545.144-2.295 1.2-3.481 3.246-3.934l-.847.751.084.212 5.75-2.213-.104.786h1.543l-.126-.74c1.12-.217 1.12-.217 2.69 1.067.121-1.065.695-1.215 1.64-1.08 6.085.86 11.302 3.64 16.06 7.449 2.987 2.391 5.56 5.17 7.416 8.58.17.314.163.729.238 1.096-.714-.11-.793 1.068-1.833.713-1.424-.486-1.927-1.929-3.21-2.576" id="Fill-4" fill="#F2242B"/><path d="M138.971 27.786c-5.702-4.882-9.782-10.678-10.473-18.424.168 8.041 4.366 13.787 10.473 18.424m4.998-4.045c2.776 2.868 6.364 4.35 10.031 5.78-.34.766-.561 1.585-1.031 2.22-.35.472-.98.869-1.557 1.019-3.544.917-6.45-.981-9.32-2.476-6.33-3.297-10.765-8.386-13.136-15.16-1.448-4.139-1.14-8.327.183-12.422.196-.606 1.274-1.05 2.033-1.322 1.466-.528 2.986-.913 4.5-1.296.982-.248 1.245.043.974.998-2.62 9.222.688 16.42 7.626 22.375.666.572 1.375 1.094 2.062 1.641.01.008-.008.049-.037.21l-1.176-.797c-.383-.258-.768-.513-1.152-.77" id="Fill-6" fill="#F2242B"/><path d="M101.817 37.972c-.014 2.252 1.061 3.37 2.548 2.98 1.616-.425 2.831-1.406 3.287-3.066.66-2.403 1.231-4.832 1.776-7.265.064-.285-.192-.835-.45-.97-1.83-.96-3.743-.419-4.91 1.437-1.391 2.215-1.826 4.76-2.251 6.884M117 18c-.197.957-.36 1.804-.546 2.646-1.182 5.331-2.265 10.688-3.596 15.981-.726 2.884-2.136 5.484-4.896 7-1.896 1.04-3.954 1.471-6.105 1.354-2.196-.119-3.73-1.41-4.423-3.625-.941-3.007-.184-5.888.689-8.738.89-2.909 2.713-5.064 5.438-6.415 1.734-.86 3.562-.96 5.434-.669.493.077.98.197 1.567.317.448-2.086.929-4.11 1.301-6.155.15-.82.477-1.193 1.306-1.254 1.22-.09 2.434-.276 3.831-.442" id="Fill-8" fill="#1D1C1B"/><path d="M60.179 29.172l-.18-.259c-.884.579-1.997.978-2.61 1.77-1.825 2.36-2.447 5.235-2.602 8.146-.094 1.774 1.478 2.626 3.128 1.937 1.518-.634 2.476-1.731 2.844-3.375.45-2.003.954-3.993 1.448-5.985.405-1.628.339-1.755-1.273-2.124-.247-.057-.503-.074-.755-.11m3.363-3.282c.448-2.182.887-4.22 1.277-6.268.131-.692.357-1.089 1.156-1.139 1.294-.08 2.58-.302 4.025-.483-.598 2.76-1.156 5.363-1.725 7.962-.721 3.293-1.397 6.597-2.202 9.868-.321 1.304-.85 2.577-1.435 3.79-2.158 4.476-6.498 5.649-10.174 5.331-2.23-.192-3.904-1.758-4.264-4.213-.63-4.302.2-8.368 2.914-11.83 2.417-3.082 5.675-4.064 9.475-3.237.28.06.556.128.953.22" id="Fill-10" fill="#1D1C1B"/><path d="M81.68 29.351c-1.915-.894-3.544-.673-4.851.97-2.115 2.66-2.99 5.787-2.683 9.16.142 1.557 1.42 2.123 2.848 1.458 1.404-.653 2.245-1.79 2.622-3.23.721-2.76 1.373-5.54 2.065-8.358m3.38 12.888c-1.094.799-2.13 1.562-3.173 2.317-.873.633-1.285.55-1.806-.4-.207-.38-.331-.803-.455-1.112-1.053.528-2.052 1.198-3.153 1.552-3.99 1.279-6.967-.533-7.385-4.653-.446-4.398.77-8.41 3.86-11.674 3.034-3.207 6.937-3.698 11.078-2.982 3.308.572 3.316.629 2.576 3.799-.634 2.716-1.321 5.42-1.974 8.132-.41 1.704-.633 3.401.432 5.021" id="Fill-12" fill="#1D1C1B"/><path d="M14.817 39.183l1.809 3.354c-3.685 2.607-9.095 3.29-12.69 1.345-2.49-1.347-3.719-3.603-3.885-6.377-.35-5.879 1.066-11.263 5.169-15.55 3.313-3.461 7.517-4.568 12.15-3.643 1.186.237 2.286.933 3.63 1.505-1.17 1.31-2.11 2.363-2.819 3.155-1.716-.303-3.204-.755-4.7-.783-1.957-.036-3.597.96-4.62 2.66-2.28 3.794-3.53 7.92-3.186 12.418.184 2.404 1.47 3.559 3.823 3.645 1.9.07 3.643-.447 5.32-1.73" id="Fill-14" fill="#1D1C1B"/><path d="M23.174 38.215c.049 1.281-.051 2.63 1.3 3.247 1.22.556 2.391.113 3.201-.857 2.485-2.974 3.44-6.444 2.85-10.283-.2-1.305-1.304-1.855-2.595-1.567-1.306.292-2.06 1.256-2.72 2.298-1.392 2.194-1.866 4.662-2.036 7.162m1.891 6.783c-.296 0-.591.005-.887-.001-3.36-.07-5.792-2.046-6.094-5.421-.453-5.066.873-9.564 5.166-12.691 2.106-1.535 4.574-2.095 7.156-1.816 3.418.368 5.553 2.937 5.593 6.763.032 3.034-.681 5.925-2.266 8.527-1.973 3.239-4.961 4.647-8.668 4.639" id="Fill-16" fill="#1D1C1B"/><path d="M39.647 25.976l5.165-.747v2.424c2.128-1.888 4.238-3.161 7.188-2.456-.694 1.348-1.302 2.575-1.968 3.772-.097.174-.47.29-.712.284-2.722-.061-4.415 1.264-4.956 3.854-.697 3.34-1.452 6.669-2.13 10.012-.136.676-.395.905-1.092.879-1.33-.05-2.663-.014-4.142-.014.632-3.071 1.236-6.04 1.857-9.005.616-2.943 1.487-5.859.79-9.003" id="Fill-18" fill="#1D1C1B"/><path d="M88 43.973c.438-2.167.847-4.22 1.27-6.27.773-3.764 1.573-7.524 2.317-11.295.137-.695.404-.957 1.115-.995 1.394-.075 2.783-.26 4.298-.413-.605 2.782-1.172 5.429-1.757 8.072-.728 3.292-1.496 6.576-2.192 9.874-.163.772-.43 1.103-1.266 1.048-1.216-.08-2.44-.02-3.785-.02" id="Fill-20" fill="#1D1C1B"/><path d="M96.241 18c1.538.152 2.634.785 2.748 1.715.117.954-.716 1.903-2.186 2.183-.831.159-1.776.139-2.577-.105-.52-.16-1.172-.835-1.222-1.335-.052-.511.433-1.274.908-1.594.667-.45 1.543-.59 2.33-.864" id="Fill-22" fill="#1D1C1B"/></g></g></g></g></g></g></svg>