<svg xmlns="http://www.w3.org/2000/svg" viewBox="0 0 560 200"><defs><style>.cls-1{isolation:isolate;}.cls-2{fill:#3d4a4c;}.cls-3{fill:#e6e6e6;}.cls-4,.cls-5,.cls-6{fill:none;stroke-linejoin:bevel;stroke-width:16px;mix-blend-mode:multiply;}.cls-4{stroke:#067172;}.cls-4,.cls-5{opacity:0.9;}.cls-5{stroke:#ec1c24;}.cls-6{stroke:#c21889;opacity:0.75;}</style></defs><title>subsidietrekker logo copy 2</title><g class="cls-1"><g id="Layer_1" data-name="Layer 1"><path class="cls-2" d="M236.92,89.33a16.75,16.75,0,0,1-6.58-6.21,17.91,17.91,0,0,1,0-17.81,16.75,16.75,0,0,1,6.58-6.21,20.76,20.76,0,0,1,18.84,0,17.13,17.13,0,0,1,0,30.23,20.76,20.76,0,0,1-18.84,0Zm14.81-5.73a9.73,9.73,0,0,0,3.76-3.82,12,12,0,0,0,0-11.13,9.79,9.79,0,0,0-3.76-3.82,11.25,11.25,0,0,0-10.76,0,9.79,9.79,0,0,0-3.76,3.82,12,12,0,0,0,0,11.13A9.73,9.73,0,0,0,241,83.6a11.25,11.25,0,0,0,10.76,0Z"/><path class="cls-2" d="M291.4,66.46A11.92,11.92,0,0,1,296,71.12a15.36,15.36,0,0,1,0,14,11.83,11.83,0,0,1-4.63,4.65,13.1,13.1,0,0,1-6.55,1.66,10,10,0,0,1-7.78-3.12v12h-7.49V65.19h7.15v3c1.86-2.24,4.56-3.36,8.12-3.36A13.2,13.2,0,0,1,291.4,66.46Zm-3.12,16.85a8.28,8.28,0,0,0,0-10.41,6.71,6.71,0,0,0-9.46,0,8.25,8.25,0,0,0,0,10.41,6.71,6.71,0,0,0,9.46,0Z"/><path class="cls-2" d="M327.37,80.22H307.84A6.08,6.08,0,0,0,310.33,84a8.27,8.27,0,0,0,4.9,1.39,9.9,9.9,0,0,0,3.57-.6,8.65,8.65,0,0,0,2.91-1.9l4,4.32Q322,91.41,315,91.4a16.92,16.92,0,0,1-7.73-1.7A12.6,12.6,0,0,1,302.12,85a13.89,13.89,0,0,1,0-13.71A12.68,12.68,0,0,1,307,66.51a14.6,14.6,0,0,1,7-1.7,14.39,14.39,0,0,1,6.86,1.63,11.87,11.87,0,0,1,4.82,4.68,13.93,13.93,0,0,1,1.76,7.08C327.52,78.29,327.47,79,327.37,80.22Zm-17.52-8.31a6.15,6.15,0,0,0-2.11,3.94h12.72a6.2,6.2,0,0,0-2.11-3.91,6.3,6.3,0,0,0-4.23-1.47A6.45,6.45,0,0,0,309.85,71.91Z"/><path class="cls-2" d="M355.48,67.69c2,1.92,2.95,4.77,2.95,8.54V91h-7.49V77.38a6.77,6.77,0,0,0-1.34-4.58,4.94,4.94,0,0,0-3.89-1.51A5.94,5.94,0,0,0,341.2,73a7.25,7.25,0,0,0-1.68,5.21V91H332V65.19h7.15v3a9.82,9.82,0,0,1,3.7-2.52,12.67,12.67,0,0,1,4.84-.89A10.65,10.65,0,0,1,355.48,67.69Z"/><path class="cls-2" d="M260.65,141l0-20.16-9.89,16.6h-3.51l-9.84-16.17V141h-7.29v-33.6h6.43l12.58,20.87,12.38-20.87h6.38L268,141Z"/><path class="cls-2" d="M300.92,115.19V141h-7.1v-3.08a9.94,9.94,0,0,1-3.55,2.57,11.24,11.24,0,0,1-4.46.89,11,11,0,0,1-8.07-2.93q-3-2.92-3-8.69V115.19h7.48v13.49q0,6.24,5.24,6.24a5.59,5.59,0,0,0,4.31-1.75,7.4,7.4,0,0,0,1.64-5.21V115.19Z"/><path class="cls-2" d="M307.41,105.4h7.48V141h-7.48Z"/><path class="cls-2" d="M339.9,139.77a7.77,7.77,0,0,1-2.71,1.22,13.81,13.81,0,0,1-3.39.41q-4.6,0-7.12-2.35t-2.52-6.91V121.53h-4v-5.76h4v-6.29h7.48v6.29h6.44v5.76h-6.44V132a3.52,3.52,0,0,0,.84,2.52,3.14,3.14,0,0,0,2.38.89,4.8,4.8,0,0,0,3-1Z"/><path class="cls-2" d="M344,110.39a4.05,4.05,0,0,1,0-6,4.74,4.74,0,0,1,3.36-1.2,4.88,4.88,0,0,1,3.36,1.15,3.71,3.71,0,0,1,1.29,2.88,4.1,4.1,0,0,1-1.29,3.1,5.27,5.27,0,0,1-6.72,0Zm-.39,4.8h7.49V141h-7.49Z"/><path class="cls-2" d="M357.61,105.4h7.49V141h-7.49Z"/><path class="cls-2" d="M391.21,117.66c2.14,1.91,3.22,4.78,3.22,8.62V141h-7V137.8q-2.12,3.6-7.87,3.6a12.21,12.21,0,0,1-5.16-1,7.7,7.7,0,0,1-3.34-2.78,7.25,7.25,0,0,1-1.15-4,6.74,6.74,0,0,1,2.71-5.67q2.72-2.05,8.38-2.06h5.95a4.79,4.79,0,0,0-1.49-3.77,6.55,6.55,0,0,0-4.46-1.32,13.11,13.11,0,0,0-4.06.65,10.48,10.48,0,0,0-3.38,1.75l-2.69-5.23a16.49,16.49,0,0,1,5.06-2.31,22.86,22.86,0,0,1,6.08-.81Q388,114.81,391.21,117.66Zm-6.38,17.81a4.87,4.87,0,0,0,2.11-2.61v-2.64H381.8c-3.07,0-4.6,1-4.6,3a2.69,2.69,0,0,0,1.12,2.28,5.09,5.09,0,0,0,3.1.84A6.57,6.57,0,0,0,384.83,135.47Z"/><path class="cls-2" d="M417.37,139.77a7.77,7.77,0,0,1-2.71,1.22,13.81,13.81,0,0,1-3.39.41q-4.61,0-7.12-2.35t-2.52-6.91V121.53h-4v-5.76h4v-6.29h7.49v6.29h6.43v5.76h-6.43V132a3.48,3.48,0,0,0,.84,2.52,3.1,3.1,0,0,0,2.37.89,4.8,4.8,0,0,0,3-1Z"/><path class="cls-2" d="M445.45,130.22H425.92a6.08,6.08,0,0,0,2.49,3.79,8.24,8.24,0,0,0,4.9,1.39,9.9,9.9,0,0,0,3.57-.6,8.65,8.65,0,0,0,2.91-1.9l4,4.32q-3.64,4.18-10.65,4.18a16.92,16.92,0,0,1-7.73-1.7A12.6,12.6,0,0,1,420.2,135a13.89,13.89,0,0,1,0-13.71,12.68,12.68,0,0,1,4.94-4.75,14.59,14.59,0,0,1,7-1.7,14.4,14.4,0,0,1,6.87,1.63,11.93,11.93,0,0,1,4.82,4.68,13.92,13.92,0,0,1,1.75,7.08C445.59,128.29,445.55,129,445.45,130.22Zm-17.52-8.31a6.11,6.11,0,0,0-2.11,3.94h12.72a6.2,6.2,0,0,0-2.11-3.91,6.32,6.32,0,0,0-4.23-1.47A6.45,6.45,0,0,0,427.93,121.91Z"/><path class="cls-2" d="M460.88,115.77a13.45,13.45,0,0,1,5.26-1v6.91c-.83-.06-1.39-.1-1.68-.1a6.84,6.84,0,0,0-5,1.8,7.26,7.26,0,0,0-1.83,5.4V141h-7.48V115.19h7.15v3.41A8.26,8.26,0,0,1,460.88,115.77Z"/><path class="cls-2" d="M489.61,117.66c2.14,1.91,3.22,4.78,3.22,8.62V141h-7V137.8q-2.11,3.6-7.87,3.6a12.21,12.21,0,0,1-5.16-1,7.7,7.7,0,0,1-3.34-2.78,7.25,7.25,0,0,1-1.15-4,6.74,6.74,0,0,1,2.71-5.67q2.72-2.05,8.38-2.06h5.95a4.79,4.79,0,0,0-1.49-3.77,6.55,6.55,0,0,0-4.46-1.32,13.11,13.11,0,0,0-4.06.65,10.58,10.58,0,0,0-3.38,1.75l-2.69-5.23a16.49,16.49,0,0,1,5.06-2.31,22.86,22.86,0,0,1,6.08-.81Q486.4,114.81,489.61,117.66Zm-6.38,17.81a4.87,4.87,0,0,0,2.11-2.61v-2.64H480.2c-3.07,0-4.6,1-4.6,3a2.69,2.69,0,0,0,1.12,2.28,5.09,5.09,0,0,0,3.1.84A6.54,6.54,0,0,0,483.23,135.47Z"/><path class="cls-2" d="M499.12,105.4h7.48V141h-7.48Z"/><path class="cls-2" d="M515.48,140.61a16.35,16.35,0,0,1-4.89-2l2.49-5.38a15.62,15.62,0,0,0,4.18,1.8,17.64,17.64,0,0,0,4.8.7q4.76,0,4.75-2.36a1.66,1.66,0,0,0-1.3-1.58,19.47,19.47,0,0,0-4-.82,37.74,37.74,0,0,1-5.23-1.1,8.12,8.12,0,0,1-3.58-2.21,6.26,6.26,0,0,1-1.51-4.51,7,7,0,0,1,1.42-4.34,9.12,9.12,0,0,1,4.12-3,17.76,17.76,0,0,1,6.41-1,25.14,25.14,0,0,1,5.45.6,15.29,15.29,0,0,1,4.49,1.65l-2.5,5.33a14.89,14.89,0,0,0-7.44-1.92,7.67,7.67,0,0,0-3.6.67,2,2,0,0,0-1.2,1.73,1.71,1.71,0,0,0,1.3,1.68,22.21,22.21,0,0,0,4.13.91,45.64,45.64,0,0,1,5.18,1.13,7.71,7.71,0,0,1,3.5,2.19,6.13,6.13,0,0,1,1.49,4.41,6.8,6.8,0,0,1-1.44,4.27,9.2,9.2,0,0,1-4.2,2.91,18.88,18.88,0,0,1-6.55,1A25,25,0,0,1,515.48,140.61Z"/><circle class="cls-3" cx="29.7" cy="20" r="8"/><circle class="cls-3" cx="29.7" cy="100" r="8"/><circle class="cls-3" cx="29.7" cy="180" r="8"/><circle class="cls-3" cx="109.7" cy="20" r="8"/><circle class="cls-3" cx="109.7" cy="100" r="8"/><circle class="cls-3" cx="109.7" cy="180" r="8"/><circle class="cls-3" cx="189.7" cy="20" r="8"/><circle class="cls-3" cx="189.7" cy="100" r="8"/><circle class="cls-3" cx="189.7" cy="180" r="8"/><polygon class="cls-4" points="30.23 20 190 20 190 100 30.23 99.75 30.23 20"/><polygon class="cls-5" points="69.31 20 190 136.31 190 20 69.31 20"/><circle class="cls-6" cx="69.9" cy="140" r="40"/></g></g></svg>