<svg version="1" xmlns="http://www.w3.org/2000/svg" width="533.333" height="533.333" viewBox="0 0 400.000000 400.000000"><path d="M36.9 24.1c-7.9 1.3-13.2 7.3-13.2 14.7.1 13.1.2 157.4.1 161.9-.1 4.2.3 5.8 2.6 8.8 3.6 4.7 7.9 6.5 15.5 6.5 3.4 0 6.3.5 6.7 1.2.4.6.3.8-.4.4-.9-.5-7.2 6.2-7.2 7.9 0 .3-.7 1.3-1.6 2.2-.8.9-1.2 2.3-.9 3.1.3.9.3 1.3-.1 1-1-1.1-3.4 1.8-3.6 4.6-.1 1.3-.7 2.4-1.2 2.3-.6-.1-1 .3-1.1 1 0 .6-.3 1.5-.7 1.9-1.3 1.2-.9 3.6.4 2.8.7-.4.8-.3.4.5-.4.6-1.1.9-1.6.6-.4-.3-1.3.9-1.9 2.5-.5 1.7-.7 3-.4 3 .3 0 0 .6-.6 1.4-.7.8-1.3 3.4-1.4 5.9-.1 2.5-.5 4.3-.9 4-.8-.4-.9 1.2-1.2 9.7-.1 1.9-.5 3.8-1.1 4.2-.6.5-.6.8.2.8s.9.9.3 2.9c-.4 1.6-.7 3.1-.5 3.3.1.2.6 3.2 1 6.8.4 3.6.8 7.2 1 8 .8 5.1 4.8 17.4 7.1 21.8.8 1.5 1.4 3.3 1.4 3.9 0 .7.4 1.3.9 1.3s1.2 1.1 1.5 2.5c.4 1.4 1.1 2.5 1.6 2.5.6 0 1 .6 1 1.2 0 2.1 9.1 12.9 10.2 12.2.7-.4.8-.2.4.4-.4.6.1 2 1.1 3.2 1.8 2.1 3.9 2.8 2.7.8-.4-.7-.3-.8.4-.4.6.4.9 1.3.5 2.1-.6 1.7.8 2 2.4.4.8-.8 1.3-.7 1.8.2.5.7.4 1-.3.5-.6-.3-1.3-.2-1.6.3-1.4 2.2 21.3 16.9 23.6 15.4.7-.3.8-.1.4.5-.4.7.4 1.4 2.1 1.8 1.5.4 3.3 1 3.8 1.5.6.4 2.2 1 3.5 1.2 1.4.2 3.7.9 5.1 1.5 4.6 1.8 10.9 2.4 12.5 1.1 1.2-.9 1.3-.9.9.3-.5 1.2.7 1.4 6.5 1.5 3.9.1 6.8-.2 6.5-.7-.3-.5-.1-1.2.5-1.5.6-.4.9-.1.8.7-.2.9 1 1.3 4.4 1.3 2.7 0 4.8-.2 4.8-.5s1.2-.5 2.8-.4c1.5 0 4.2-.3 6.1-.8 1.8-.5 4.2-1.1 5.3-1.3 1.1-.3 2.7-1.2 3.5-2.2.8-1 1.1-1.2.7-.4-.9 1.7 1.9.9 10.4-3.2 5.4-2.6 6.1-3.2 5-4.6-1.2-1.4-1.1-1.4.4-.3 1.5 1.2 2.2 1.1 5.3-.8 1.9-1.2 3.5-2.6 3.5-3.1s.3-.8.8-.7c1.4.3 4.2-1.4 3.6-2.3-.3-.5.1-.9.9-.9 3.7 0 24.8-26.4 23.1-29.1-.4-.7-.3-1 .3-.6 1.1.7 5.9-8.7 5.6-11 0-.7.3-1.3.8-1.3s.9-.5.9-1.1c0-.5-.6-.7-1.2-.4-.7.4-.6 0 .3-.7 1.5-1.2 3-5.6 3.4-9.8 0-.9.3-2 .6-2.5.3-.6.6-2.1.8-3.5.1-1.4.3-3.6.4-5 .1-1.6-.3-2.4-1.1-2.2-.8.1-1.1-.2-.7-.8.3-.6 1-.8 1.5-.5 1.3.8.5-17.2-1.1-25.1-.9-4.5-1.7-6.3-2.6-6-.7.3-1.5.1-1.8-.5-.4-.5-.3-.8.2-.7.4.2 1 .1 1.2-.2.8-.8-2.1-10-3-10-.5 0-.8-.3-.7-.8.3-1.2-2.5-8.2-3.4-8.2-.4 0-.8-.5-.8-1.1 0-1.2-7.8-12.9-8.6-12.9-.3 0-.3.4.1.9.3.5.1 1.2-.4 1.6-.6.3-.8-.4-.6-1.6.3-1.3 0-2.8-.6-3.6-1-1.1 6.3-1.3 42.1-1.3h43.2l4.2 4.2c2.4 2.4 13.4 13.1 24.6 23.8 11.1 10.7 23 22.2 26.5 25.5 3.4 3.3 8.3 8 10.8 10.4l4.6 4.4 12.8-5.3c7-3 13.2-5.7 13.7-6.1.5-.5 1-48.5 1-116.3.2-104.9 0-116-1.5-120.6-1.9-6-3.8-8.3-8.7-10.6-3.4-1.6-14.2-1.7-164.8-1.8-88.6-.1-162.6.2-164.5.5zm80.2 37c3 2.8 14.4 13.8 25.4 24.4 11 10.6 23.2 22.3 27 26 3.9 3.7 16.7 16 28.5 27.4 11.8 11.5 27.1 26.2 33.9 32.8l12.4 11.9-93.4-.2c-51.4-.1-93.6-.2-93.9-.3-.4-.1-.5-126-.1-126.9 0-.1 12.4-.2 27.5-.2h27.4l5.3 5.1zm226.7 59l.2 63.6h-52.8l-8.3-8c-8.6-8.1-25-23.9-48.5-46.6-11.4-11-24.4-23.5-65-62.6-5.2-5-9.4-9.3-9.4-9.6 0-.3 41.3-.5 91.8-.5l91.7.1.3 63.6zm-205.3 98.8c9.1 3.4 9.9 3.6 9 2.1-.5-.9-.4-1.1.4-.6.6.4.9 1.1.7 1.5-.3.4.7 1.4 2.2 2.2 4.4 2.2 10.4 6.9 15.6 12.3 2.7 2.8 5.3 5 5.7 4.9.5-.2.5.5.2 1.4-.4 1-.2 1.4.5.9.6-.3 1.4-.1 1.8.5.4.8.3.9-.4.5-1.6-1-1.5.5.2 2.6.7 1 1.6 1.4 2 1 .4-.4.7-.3.6.3-.5 2.3.1 4.6 1 4 .6-.3.7.1.4.9-.3.9-.2 1.6.3 1.6s1 .6 1.1 1.2c0 .7.9 4.6 2 8.5 1.1 4 1.8 7.3 1.5 7.3-.3 0 .1.8.8 1.7 1.2 1.5 1.2 1.6-.1.8s-1.3-.7-.1.8c.7.9 1 1.7.5 1.7-1 0-1 6.7-.1 7.7.4.3.2 1.1-.3 1.8-.5.6-1.1 2.9-1.3 5.1-.1 2.1-.6 4.5-1.1 5.2-.4.7-.5 2-.2 2.8.3.8.2 1.3-.3 1-.4-.3-1.4 1.3-2.1 3.5-.7 2.2-2.8 6.2-4.7 9-1.8 2.8-3.3 5.4-3.3 5.9 0 .4-.7 1.1-1.6 1.4-1 .4-1.4 1.2-1 2.3.4 1 .4 1.4 0 1.1-.8-.9-9.6 6.1-8.9 7.1.2.4-.1.8-.8.8-2.1 0-8.7 4.4-8.1 5.4.3.5-.1.6-.9.3s-1.8 0-2.2.5c-.3.6-1 .9-1.5.6-.5-.3-1.1-.1-1.5.5-.3.5-1.3 1-2.2 1-.9 0-2.5.8-3.6 1.8-1.1.9-1.7 1.1-1.3.4.7-1.2.4-1.2-1.5-.1-1.3.7-2.5 1.2-2.6 1.1-.2-.1-1.2-.2-2.4-.2s-1.7.4-1.3 1.1c.4.8 0 .8-1.5 0-1.4-.8-2.1-.8-2.1-.1 0 .7-.7.8-1.7.3-1.6-.7-4.8-.9-6.3-.3-1.8.6-4 .7-4 .1 0-.4-.8-.7-1.7-.8-6.2-.2-9.8-1.2-17-4.4-2.4-1-4.6-1.9-5-1.9-.5 0-1.9-.9-3.3-2-1.7-1.2-2.8-1.5-3.6-.9-.8.7-1.5.6-2-.2-.4-.8-.3-.9.4-.5s1.2.4 1.2 0c0-1.2-3.2-4.4-4.4-4.4-.6-.1-2.9-2.3-5.1-5-2.2-2.8-4.6-4.8-5.3-4.5-.7.3-1 0-.7-.5.3-.5-1-3.7-3-7.1-3.2-5.5-6.2-13.6-8-21.4-.5-2.3-.9-12.9-.6-16 .2-1.2-.5-2-1.4-1.7-.5.2-.2-.5.8-1.6.9-1 1.7-2.5 1.7-3.3 0-2.5 4.2-14.2 6.8-18.9 1.4-2.5 4-6.3 5.8-8.6 1.9-2.2 3.2-4.4 2.9-4.7-.3-.4-.2-.5.2-.2 1 .8 5.3-3.7 4.6-4.8-.3-.6-.1-.7.5-.3 1.1.7 10.5-5.8 9.6-6.7-.3-.3 0-.8.7-1.3.8-.4 1-.3.5.4-1 1.6-.3 1.5 3.8-.5 1.9-.9 3.3-2 3-2.4-.2-.4.1-1.1.7-1.5.8-.5.9-.3.4.6-.6 1-.2 1.1 2 .6 1.5-.4 4-1 5.6-1.3 1.6-.3 2.9-.8 2.9-1.2 0-.4 5.7-.6 12.8-.5 10.5.1 13.7.5 18.7 2.3zm12-2c.3.5.2 1.2-.3 1.5-.5.3-.9-.1-.9-.9 0-1.7.3-1.9 1.2-.6zm32.2.6c0 .8-.4 1.2-.9.9-.5-.3-.6-1-.3-1.5.9-1.3 1.2-1.1 1.2.6zM344 225c0 4.9-.1 9-.3 9-.2 0-4.6-4-9.8-9l-9.4-9H344v9zm-281.4-6.8c.3.4-.1.5-1 .4-.8-.1-1.8-.5-2.2-.8-.3-.4.1-.5 1-.4.8.1 1.8.5 2.2.8zm5.9-.3c-.9.8-3.6 1-3 .2.2-.4 1.1-.8 2-.8.8 0 1.3.3 1 .6zm18.1.3c.3.4-.1.5-1 .4-.8-.1-1.8-.5-2.2-.8-.3-.4.1-.5 1-.4.8.1 1.8.5 2.2.8zm6 0c.3.4-.1.5-1 .4-.8-.1-1.8-.5-2.2-.8-.3-.4.1-.5 1-.4.8.1 1.8.5 2.2.8zm49.8-.4c.3.5-.1.9-.9.9s-1.2-.4-.9-.9c.3-.4.7-.8.9-.8.2 0 .6.4.9.8zm12.2.7c-.1.8-.5 1.7-.8 2.1-.5.4-.4-1.6.1-3.4.3-.9.9.1.7 1.3zm20-.3c.3.4-.1.5-1 .4-.8-.1-1.8-.5-2.2-.8-.3-.4.1-.5 1-.4.8.1 1.8.5 2.2.8zm-12.1 3c.5-.4.5-.1.1.6-.6 1-1.1 1-2.2.1-.8-.6-1.4-1.4-1.4-1.6 0-.3.6 0 1.3.6.8.6 1.8.7 2.2.3zm-112 .7c-.9.8-3.6 1-3 .2.2-.4 1.1-.8 2-.8.8 0 1.3.3 1 .6zm6 0c-.9.8-3.6 1-3 .2.2-.4 1.1-.8 2-.8.8 0 1.3.3 1 .6zm18 0c-.9.8-3.6 1-3 .2.2-.4 1.1-.8 2-.8.8 0 1.3.3 1 .6zm6 0c-.9.8-3.6 1-3 .2.2-.4 1.1-.8 2-.8.8 0 1.3.3 1 .6zm88 0c-.9.8-3.6 1-3 .2.2-.4 1.1-.8 2-.8.8 0 1.3.3 1 .6zm14 0c.3.5.2 1.2-.3 1.5-.5.3-.9-.1-.9-.9 0-1.7.3-1.9 1.2-.6zm8.9-.1c.3.5-.1.9-.9.9s-1.2-.4-.9-.9c.3-.4.7-.8.9-.8.2 0 .6.4.9.8zM65 223.4c0 .2-.7.7-1.6 1-.8.3-1.2.2-.9-.4.6-1 2.5-1.4 2.5-.6zm-6.3 2.1c0 .8-.4 1.2-.9.9-.5-.3-.6-1-.3-1.5.9-1.3 1.2-1.1 1.2.6zm12 0c0 .8-.4 1.2-.9.9-.5-.3-.6-1-.3-1.5.9-1.3 1.2-1.1 1.2.6zm95.8-.6c.3.5.2 1.2-.3 1.5-.5.3-.9-.1-.9-.9 0-1.7.3-1.9 1.2-.6zm-8.1.9c.3.5-.1.9-.9.9s-1.2-.4-.9-.9c.3-.4.7-.8.9-.8.2 0 .6.4.9.8zm24.1.1c-.9.8-3.6 1-3 .2.2-.4 1.1-.8 2-.8.8 0 1.3.3 1 .6zm-117.9 1.6c-.1.8-.5 1.7-.8 2.1-.5.4-.4-1.6.1-3.4.3-.9.9.1.7 1.3zm127.9-.6c.3.5.2 1.2-.3 1.5-.5.3-.9-.1-.9-.9 0-1.7.3-1.9 1.2-.6zm-141.9 2.7c.1.9 0 1.3-.4 1-.3-.4-.7-1.4-.8-2.2-.1-.9 0-1.3.4-1 .3.4.7 1.4.8 2.2zm26.9-1.6c.3.6-.1.7-.9.4-1.8-.7-2.1-1.4-.7-1.4.6 0 1.3.4 1.6 1zm97.1.5c-.1.8-.5 1.7-.8 2.1-.5.4-.4-1.6.1-3.4.3-.9.9.1.7 1.3zm-128 3.1c.1.9 0 1.3-.4 1-.3-.4-.7-1.4-.8-2.2-.1-.9 0-1.3.4-1 .3.4.7 1.4.8 2.2zm11.9-1.7c.3.5.2 1.2-.3 1.5-.5.3-.9-.1-.9-.9 0-1.7.3-1.9 1.2-.6zm11.9 0c.3.5-.2 1.5-1.2 2.2-1.5 1.2-1.6 1.2-.5-.2.7-.9 1-1.9.6-2.2-.3-.4-.4-.7 0-.7.3 0 .8.4 1.1.9zm118.1 0c-.9.8-3.6 1-3 .2.2-.4 1.1-.8 2-.8.8 0 1.3.3 1 .6zm11.5-.3c0 .8-1.9 1.3-2.4.6-.3-.5.1-.9.9-.9s1.5.2 1.5.3zm-30.9 2.1c1.3 1.6 1.2 1.7-.3.4-1-.7-1.8-1.5-1.8-1.7 0-.8.8-.3 2.1 1.3zM66 231.4c0 .2-.8 1-1.7 1.7-1.6 1.3-1.7 1.2-.4-.4 1.3-1.6 2.1-2.1 2.1-1.3zm128.6 1.1c-.1.8-.5 1.7-.8 2.1-.5.4-.4-1.6.1-3.4.3-.9.9.1.7 1.3zM43 233.6c0 .8-1.9 1.3-2.4.6-.3-.5.1-.9.9-.9s1.5.2 1.5.3zm11.6 2c.1.9 0 1.3-.4 1-.3-.4-.7-1.4-.8-2.2-.1-.9 0-1.3.4-1 .3.4.7 1.4.8 2.2zm120-1.1c-.1.8-.5 1.7-.8 2.1-.5.4-.4-1.6.1-3.4.3-.9.9.1.7 1.3zm4.4-.9c0 .8-1.9 1.3-2.4.6-.3-.5.1-.9.9-.9s1.5.2 1.5.3zm5.1 1.1c1.2 1.6 1.2 1.7-.2.6-.9-.7-2-.9-2.4-.5-.5.4-.5.1-.1-.6.9-1.6 1.1-1.5 2.7.5zm6.5 1.8c-.1.8-.5 1.7-.8 2.1-.5.4-.4-1.6.1-3.4.3-.9.9.1.7 1.3zm-147.9 1c0 .8-.4 1.2-.9.9-.5-.3-.6-1-.3-1.5.9-1.3 1.2-1.1 1.2.6zm19.9.7c.3.4-.1.5-1 .4-.8-.1-1.8-.5-2.2-.8-.3-.4.1-.5 1-.4.8.1 1.8.5 2.2.8zm6 0c.3.4-.1.5-1 .4-.8-.1-1.8-.5-2.2-.8-.3-.4.1-.5 1-.4.8.1 1.8.5 2.2.8zm126 .3c-.1.8-.5 1.7-.8 2.1-.5.4-.4-1.6.1-3.4.3-.9.9.1.7 1.3zm8.8-.7c.3.5-.1.9-.9.9s-1.2-.4-.9-.9c.3-.4.7-.8.9-.8.2 0 .6.4.9.8zm-164.8 5.8c.1.9 0 1.3-.4 1-.3-.4-.7-1.4-.8-2.2-.1-.9 0-1.3.4-1 .3.4.7 1.4.8 2.2zm4 0c.1.9 0 1.3-.4 1-.3-.4-.7-1.4-.8-2.2-.1-.9 0-1.3.4-1 .3.4.7 1.4.8 2.2zm8-1.4c.4.7.4 1-.1.6-.4-.4-1.5-.2-2.4.5-1.4 1.1-1.4 1-.2-.6 1.6-2 1.8-2.1 2.7-.5zm6 0c.3.4-.1.5-1 .4-.8-.1-1.8-.5-2.2-.8-.3-.4.1-.5 1-.4.8.1 1.8.5 2.2.8zm122 1.4c.1.9 0 1.3-.4 1-.3-.4-.7-1.4-.8-2.2-.1-.9 0-1.3.4-1 .3.4.7 1.4.8 2.2zm8-1.1c-.1.8-.5 1.7-.8 2.1-.5.4-.4-1.6.1-3.4.3-.9.9.1.7 1.3zm14-.3c.3.4-.1.5-1 .4-.8-.1-1.8-.5-2.2-.8-.3-.4.1-.5 1-.4.8.1 1.8.5 2.2.8zm-138 4c.3.4-.1.5-1 .4-.8-.1-1.8-.5-2.2-.8-.3-.4.1-.5 1-.4.8.1 1.8.5 2.2.8zm140.1-.5c-.4.3-.1 1.3.6 2.2 1.1 1.4 1 1.4-.5.2-1.6-1.2-1.6-3.1-.1-3.1.4 0 .3.3 0 .7zm-156.1 3.9c.1.9 0 1.3-.4 1-.3-.4-.7-1.4-.8-2.2-.1-.9 0-1.3.4-1 .3.4.7 1.4.8 2.2zm144-1.1c-.1.8-.5 1.7-.8 2.1-.5.4-.4-1.6.1-3.4.3-.9.9.1.7 1.3zm17.9.3c-.3.3-1.1 0-1.8-.7-.9-1-.8-1.1.6-.5 1 .3 1.5.9 1.2 1.2zm-173.5.6c0 .3-.4.8-1 1.1-.5.3-1 .1-1-.4 0-.6.5-1.1 1-1.1.6 0 1 .2 1 .4zm26 .6c0 .5-.2 1-.4 1-.3 0-.8-.5-1.1-1-.3-.6-.1-1 .4-1 .6 0 1.1.4 1.1 1zm121.6.2c.3.4-.1.5-1 .4-.8-.1-1.8-.5-2.2-.8-.3-.4.1-.5 1-.4.8.1 1.8.5 2.2.8zm16 .3c-.1.8-.5 1.7-.8 2.1-.5.4-.4-1.6.1-3.4.3-.9.9.1.7 1.3zm-164 4c-.1.8-.5 1.7-.8 2.1-.5.4-.4-1.6.1-3.4.3-.9.9.1.7 1.3zm15.9-.6c-.9.8-3.6 1-3 .2.2-.4 1.1-.8 2-.8.8 0 1.3.3 1 .6zm6 0c-.9.8-3.6 1-3 .2.2-.4 1.1-.8 2-.8.8 0 1.3.3 1 .6zm134.1.6c-.1.8-.5 1.7-.8 2.1-.5.4-.4-1.6.1-3.4.3-.9.9.1.7 1.3zm15.9-.6c-.9.8-3.6 1-3 .2.2-.4 1.1-.8 2-.8.8 0 1.3.3 1 .6zm-167.9 2.6c-.1.8-.5 1.7-.8 2.1-.5.4-.4-1.6.1-3.4.3-.9.9.1.7 1.3zm156 0c-.1.8-.5 1.7-.8 2.1-.5.4-.4-1.6.1-3.4.3-.9.9.1.7 1.3zm11.9.4c.3.5.2 1.2-.3 1.5-.5.3-.9-.1-.9-.9 0-1.7.3-1.9 1.2-.6zm-152 1c-.9.8-3.6 1-3 .2.2-.4 1.1-.8 2-.8.8 0 1.3.3 1 .6zm146.1 2.7c.1.9 0 1.3-.4 1-.3-.4-.7-1.4-.8-2.2-.1-.9 0-1.3.4-1 .3.4.7 1.4.8 2.2zm-154-.1c-.1.8-.5 1.7-.8 2.1-.5.4-.4-1.6.1-3.4.3-.9.9.1.7 1.3zm140 0c-.1.8-.5 1.7-.8 2.1-.5.4-.4-1.6.1-3.4.3-.9.9.1.7 1.3zm-147.9 2c0 .8-.4 1.2-.9.9-.5-.3-.6-1-.3-1.5.9-1.3 1.2-1.1 1.2.6zm155.9 0c-.1.8-.5 1.7-.8 2.1-.5.4-.4-1.6.1-3.4.3-.9.9.1.7 1.3zm12 0c-.1.8-.5 1.7-.8 2.1-.5.4-.4-1.6.1-3.4.3-.9.9.1.7 1.3zm-164 4c-.1.8-.5 1.7-.8 2.1-.5.4-.4-1.6.1-3.4.3-.9.9.1.7 1.3zm144 1.1c.1.9 0 1.3-.4 1-.3-.4-.7-1.4-.8-2.2-.1-.9 0-1.3.4-1 .3.4.7 1.4.8 2.2zm-136 2c.1.9 0 1.3-.4 1-.3-.4-.7-1.4-.8-2.2-.1-.9 0-1.3.4-1 .3.4.7 1.4.8 2.2zm148-1.1c-.1.8-.5 1.7-.8 2.1-.5.4-.4-1.6.1-3.4.3-.9.9.1.7 1.3zm4 0c-.1.8-.5 1.7-.8 2.1-.5.4-.4-1.6.1-3.4.3-.9.9.1.7 1.3zm7.9.7c.5-.4.5-.1.1.6-.6 1-1.1 1-2.2.1-.8-.6-1.4-1.4-1.4-1.6 0-.3.6 0 1.3.6.8.6 1.8.7 2.2.3zm-174 .7c-.9.8-3.6 1-3 .2.2-.4 1.1-.8 2-.8.8 0 1.3.3 1 .6zm154.1 3.7c.1.9 0 1.3-.4 1-.3-.4-.7-1.4-.8-2.2-.1-.9 0-1.3.4-1 .3.4.7 1.4.8 2.2zm-160.1.3c-.9.8-3.6 1-3 .2.2-.4 1.1-.8 2-.8.8 0 1.3.3 1 .6zm12 0c-.9.8-3.6 1-3 .2.2-.4 1.1-.8 2-.8.8 0 1.3.3 1 .6zm4.9-.1c.3.5-.1.9-.9.9s-1.2-.4-.9-.9c.3-.4.7-.8.9-.8.2 0 .6.4.9.8zm3.2 1.8c.1.9 0 1.3-.4 1-.3-.4-.7-1.4-.8-2.2-.1-.9 0-1.3.4-1 .3.4.7 1.4.8 2.2zm144 0c.1.9 0 1.3-.4 1-.3-.4-.7-1.4-.8-2.2-.1-.9 0-1.3.4-1 .3.4.7 1.4.8 2.2zm-158 2.6c.3.4-.1.5-1 .4-.8-.1-1.8-.5-2.2-.8-.3-.4.1-.5 1-.4.8.1 1.8.5 2.2.8zm165.8-.4c.3.5-.1.9-.9.9s-1.2-.4-.9-.9c.3-.4.7-.8.9-.8.2 0 .6.4.9.8zm6.2.4c.3.4-.1.5-1 .4-.8-.1-1.8-.5-2.2-.8-.3-.4.1-.5 1-.4.8.1 1.8.5 2.2.8zm-182.1 2.7c.3.5.2 1.2-.3 1.5-.5.3-.9-.1-.9-.9 0-1.7.3-1.9 1.2-.6zm10.1 1.3c.3.4-.1.5-1 .4-.8-.1-1.8-.5-2.2-.8-.3-.4.1-.5 1-.4.8.1 1.8.5 2.2.8zm18 0c.3.4-.1.5-1 .4-.8-.1-1.8-.5-2.2-.8-.3-.4.1-.5 1-.4.8.1 1.8.5 2.2.8zm136.8-.4c.3.5-.1.9-.9.9s-1.2-.4-.9-.9c.3-.4.7-.8.9-.8.2 0 .6.4.9.8zm7.2.4c.3.4-.1.5-1 .4-.8-.1-1.8-.5-2.2-.8-.3-.4.1-.5 1-.4.8.1 1.8.5 2.2.8zm12 1.4c.1.9 0 1.3-.4 1-.3-.4-.7-1.4-.8-2.2-.1-.9 0-1.3.4-1 .3.4.7 1.4.8 2.2zm-184 2.9c-.1.8-.5 1.7-.8 2.1-.5.4-.4-1.6.1-3.4.3-.9.9.1.7 1.3zm16-.3c.3.4-.1.5-1 .4-.8-.1-1.8-.5-2.2-.8-.3-.4.1-.5 1-.4.8.1 1.8.5 2.2.8zm6 0c.3.4-.1.5-1 .4-.8-.1-1.8-.5-2.2-.8-.3-.4.1-.5 1-.4.8.1 1.8.5 2.2.8zm156 0c.3.4-.1.5-1 .4-.8-.1-1.8-.5-2.2-.8-.3-.4.1-.5 1-.4.8.1 1.8.5 2.2.8zm-15 2c.3.4-.1.5-1 .4-.8-.1-1.8-.5-2.2-.8-.3-.4.1-.5 1-.4.8.1 1.8.5 2.2.8zm18.9-.2c.3.5.1 1-.4 1-.6 0-1.1-.5-1.1-1 0-.6.2-1 .4-1 .3 0 .8.4 1.1 1zm-165.8 1.5c0 .8-.4 1.2-.9.9-.5-.3-.6-1-.3-1.5.9-1.3 1.2-1.1 1.2.6zm9.9.7c.3.4-.1.5-1 .4-.8-.1-1.8-.5-2.2-.8-.3-.4.1-.5 1-.4.8.1 1.8.5 2.2.8zm141.8-.4c.2.4-.5.9-1.7.9-1.7.2-1.9 0-.7-.7 1.8-1.2 1.8-1.2 2.4-.2zm6.1.1c-.9.8-3.6 1-3 .2.2-.4 1.1-.8 2-.8.8 0 1.3.3 1 .6zm-169.9 3.7c.1.9 0 1.3-.4 1-.3-.4-.7-1.4-.8-2.2-.1-.9 0-1.3.4-1 .3.4.7 1.4.8 2.2zm4 0c.1.9 0 1.3-.4 1-.3-.4-.7-1.4-.8-2.2-.1-.9 0-1.3.4-1 .3.4.7 1.4.8 2.2zm7.9.3c.3.5.2 1.2-.3 1.5-.5.3-.9-.1-.9-.9 0-1.7.3-1.9 1.2-.6zm144.5-.3c0 .8-1.9 1.3-2.4.6-.3-.5.1-.9.9-.9s1.5.2 1.5.3zm5.5.3c-.9.8-3.6 1-3 .2.2-.4 1.1-.8 2-.8.8 0 1.3.3 1 .6zm14 0c-.9.8-3.6 1-3 .2.2-.4 1.1-.8 2-.8.8 0 1.3.3 1 .6zm6.1.3c.3.4-.1.5-1 .4-.8-.1-1.8-.5-2.2-.8-.3-.4.1-.5 1-.4.8.1 1.8.5 2.2.8zm-15 2c.3.4-.1.5-1 .4-.8-.1-1.8-.5-2.2-.8-.3-.4.1-.5 1-.4.8.1 1.8.5 2.2.8zm-142.9 1.3c0 .8-.4 1.2-.9.9-.5-.3-.6-1-.3-1.5.9-1.3 1.2-1.1 1.2.6zm-24.1 1c-.1.8-.5 1.7-.8 2.1-.5.4-.4-1.6.1-3.4.3-.9.9.1.7 1.3zm8 1.1c.1.9 0 1.3-.4 1-.3-.4-.7-1.4-.8-2.2-.1-.9 0-1.3.4-1 .3.4.7 1.4.8 2.2zm167.9-1.7c-.9.8-3.6 1-3 .2.2-.4 1.1-.8 2-.8.8 0 1.3.3 1 .6zm-12 3.3c.5-.4.5-.1.1.6-.6 1-1.1 1-2.2.1-.8-.6-1.4-1.4-1.4-1.6 0-.3.6 0 1.3.6.8.6 1.8.7 2.2.3zm-147.9 1c.3.4-.1.5-1 .4-.8-.1-1.8-.5-2.2-.8-.3-.4.1-.5 1-.4.8.1 1.8.5 2.2.8zm8 1.4c.1.9 0 1.3-.4 1-.3-.4-.7-1.4-.8-2.2-.1-.9 0-1.3.4-1 .3.4.7 1.4.8 2.2zm133.9-1.7c-.9.8-3.6 1-3 .2.2-.4 1.1-.8 2-.8.8 0 1.3.3 1 .6zm12 0c-.9.8-3.6 1-3 .2.2-.4 1.1-.8 2-.8.8 0 1.3.3 1 .6zm-165.9 3.7c.1.9 0 1.3-.4 1-.3-.4-.7-1.4-.8-2.2-.1-.9 0-1.3.4-1 .3.4.7 1.4.8 2.2zm5.8-1.8c.3.5-.1.9-.9.9s-1.2-.4-.9-.9c.3-.4.7-.8.9-.8.2 0 .6.4.9.8zm10.2 1.8c.1.9 0 1.3-.4 1-.3-.4-.7-1.4-.8-2.2-.1-.9 0-1.3.4-1 .3.4.7 1.4.8 2.2zm131.3-1.2c.9 1.1.9 1.6-.1 2.2-.7.4-1 .4-.6-.1.4-.4.3-1.4-.3-2.2-.6-.7-.9-1.3-.6-1.3.2 0 1 .6 1.6 1.4zm28.7.1c-.1.8-.5 1.7-.8 2.1-.5.4-.4-1.6.1-3.4.3-.9.9.1.7 1.3zm-151.2 1.3c.3.5-.1.9-.9.9s-1.2-.4-.9-.9c.3-.4.7-.8.9-.8.2 0 .6.4.9.8zm131.2 2.7c-.1.8-.5 1.7-.8 2.1-.5.4-.4-1.6.1-3.4.3-.9.9.1.7 1.3zm-156 2c-.1.8-.5 1.7-.8 2.1-.5.4-.4-1.6.1-3.4.3-.9.9.1.7 1.3zm10-.3c.3.4-.1.5-1 .4-.8-.1-1.8-.5-2.2-.8-.3-.4.1-.5 1-.4.8.1 1.8.5 2.2.8zm6 1.4c.1.9 0 1.3-.4 1-.3-.4-.7-1.4-.8-2.2-.1-.9 0-1.3.4-1 .3.4.7 1.4.8 2.2zm131.8-1.7c.3.5-.2 1.5-1.2 2.2-1.5 1.2-1.6 1.2-.5-.2.7-.9 1-1.9.6-2.2-.3-.4-.4-.7 0-.7.3 0 .8.4 1.1.9zm16.1 0c-.9.8-3.6 1-3 .2.2-.4 1.1-.8 2-.8.8 0 1.3.3 1 .6zm6 0c-.9.8-3.6 1-3 .2.2-.4 1.1-.8 2-.8.8 0 1.3.3 1 .6zm-17.9 5.7c.1.9 0 1.3-.4 1-.3-.4-.7-1.4-.8-2.2-.1-.9 0-1.3.4-1 .3.4.7 1.4.8 2.2zm16.4-2c0 .8-1.9 1.3-2.4.6-.3-.5.1-.9.9-.9s1.5.2 1.5.3zm-164.4 2.9c-.1.8-.5 1.7-.8 2.1-.5.4-.4-1.6.1-3.4.3-.9.9.1.7 1.3zm4 0c-.1.8-.5 1.7-.8 2.1-.5.4-.4-1.6.1-3.4.3-.9.9.1.7 1.3zm12 1.1c.1.9 0 1.3-.4 1-.3-.4-.7-1.4-.8-2.2-.1-.9 0-1.3.4-1 .3.4.7 1.4.8 2.2zm4 0c.1.9 0 1.3-.4 1-.3-.4-.7-1.4-.8-2.2-.1-.9 0-1.3.4-1 .3.4.7 1.4.8 2.2zm136-1.1c-.1.8-.5 1.7-.8 2.1-.5.4-.4-1.6.1-3.4.3-.9.9.1.7 1.3zm-14 1.7c.3.4-.1.5-1 .4-.8-.1-1.8-.5-2.2-.8-.3-.4.1-.5 1-.4.8.1 1.8.5 2.2.8zm-116.1 1.7c.3.5.2 1.2-.3 1.5-.5.3-.9-.1-.9-.9 0-1.7.3-1.9 1.2-.6zm-17.9 3.7c.1.9 0 1.3-.4 1-.3-.4-.7-1.4-.8-2.2-.1-.9 0-1.3.4-1 .3.4.7 1.4.8 2.2zm3.7-.1c-.7 2.1-1.2 1.9-1-.4 0-1.1.5-1.8.9-1.5.4.3.5 1.1.1 1.9zm124.2-1.6c-.9.8-3.6 1-3 .2.2-.4 1.1-.8 2-.8.8 0 1.3.3 1 .6zm12.1.3c.3.4-.1.5-1 .4-.8-.1-1.8-.5-2.2-.8-.3-.4.1-.5 1-.4.8.1 1.8.5 2.2.8zm5.4-.6c0 .8-1.9 1.3-2.4.6-.3-.5.1-.9.9-.9s1.5.2 1.5.3zm2.6.9c-.1.8-.5 1.7-.8 2.1-.5.4-.4-1.6.1-3.4.3-.9.9.1.7 1.3zm-128 2c-.1.8-.5 1.7-.8 2.1-.5.4-.4-1.6.1-3.4.3-.9.9.1.7 1.3zM39 326c0 .5-.5 1-1.1 1-.5 0-.7-.5-.4-1 .3-.6.8-1 1.1-1 .2 0 .4.4.4 1zm19.4-.2c.3.5-.1.9-.9.9s-1.2-.4-.9-.9c.3-.4.7-.8.9-.8.2 0 .6.4.9.8zm5.6-.2c0 .8-1.9 1.3-2.4.6-.3-.5.1-.9.9-.9s1.5.2 1.5.3zm116.6.6c.3.4-.1.5-1 .4-.8-.1-1.8-.5-2.2-.8-.3-.4.1-.5 1-.4.8.1 1.8.5 2.2.8zm-106.1 2.7c.3.5.2 1.2-.3 1.5-.5.3-.9-.1-.9-.9 0-1.7.3-1.9 1.2-.6zm96 0c.3.5.2 1.2-.3 1.5-.5.3-.9-.1-.9-.9 0-1.7.3-1.9 1.2-.6zm-125.9 1.3c.3.4-.1.5-1 .4-.8-.1-1.8-.5-2.2-.8-.3-.4.1-.5 1-.4.8.1 1.8.5 2.2.8zm9.9-.3c-.9.8-3.6 1-3 .2.2-.4 1.1-.8 2-.8.8 0 1.3.3 1 .6zm12.1 1.7c.1.9 0 1.3-.4 1-.3-.4-.7-1.4-.8-2.2-.1-.9 0-1.3.4-1 .3.4.7 1.4.8 2.2zm96-1.1c-.1.8-.5 1.7-.8 2.1-.5.4-.4-1.6.1-3.4.3-.9.9.1.7 1.3zm24 0c-.1.8-.5 1.7-.8 2.1-.5.4-.4-1.6.1-3.4.3-.9.9.1.7 1.3zm11.9-.6c-.9.8-3.6 1-3 .2.2-.4 1.1-.8 2-.8.8 0 1.3.3 1 .6zm-151.8 3.8c-.4.3-.1 1.3.6 2.2 1.1 1.4 1 1.4-.5.2-1.6-1.2-1.6-3.1-.1-3.1.4 0 .3.3 0 .7zm13.9.5c.3.4-.1.5-1 .4-.8-.1-1.8-.5-2.2-.8-.3-.4.1-.5 1-.4.8.1 1.8.5 2.2.8zm13.9-.3c.3.5.2 1.2-.3 1.5-.5.3-.9-.1-.9-.9 0-1.7.3-1.9 1.2-.6zm96.2.6c0 .8-.4 1.2-.9.9-.5-.3-.6-1-.3-1.5.9-1.3 1.2-1.1 1.2.6zm9.8-.6c-.9.8-3.6 1-3 .2.2-.4 1.1-.8 2-.8.8 0 1.3.3 1 .6zm14.1 1.7c.1.9 0 1.3-.4 1-.3-.4-.7-1.4-.8-2.2-.1-.9 0-1.3.4-1 .3.4.7 1.4.8 2.2zm-33.6-.2c0 .2-.7.7-1.6 1-.8.3-1.2.2-.9-.4.6-1 2.5-1.4 2.5-.6zm29.6 1.1c-.1.8-.5 1.7-.8 2.1-.5.4-.4-1.6.1-3.4.3-.9.9.1.7 1.3zm-135.9 1c0 .8-.4 1.2-.9.9-.5-.3-.6-1-.3-1.5.9-1.3 1.2-1.1 1.2.6zm27.8-.6c.3.5.2 1.2-.3 1.5-.5.3-.9-.1-.9-.9 0-1.7.3-1.9 1.2-.6zm-11.9 1.3c.3.4-.1.5-1 .4-.8-.1-1.8-.5-2.2-.8-.3-.4.1-.5 1-.4.8.1 1.8.5 2.2.8zm84 1.4c.1.9 0 1.3-.4 1-.3-.4-.7-1.4-.8-2.2-.1-.9 0-1.3.4-1 .3.4.7 1.4.8 2.2zm11.9-1.7c-.9.8-3.6 1-3 .2.2-.4 1.1-.8 2-.8.8 0 1.3.3 1 .6zm6.1.3c.3.4-.1.5-1 .4-.8-.1-1.8-.5-2.2-.8-.3-.4.1-.5 1-.4.8.1 1.8.5 2.2.8zm10 0c.3.4-.1.5-1 .4-.8-.1-1.8-.5-2.2-.8-.3-.4.1-.5 1-.4.8.1 1.8.5 2.2.8zm-94 2.4c.1.9 0 1.3-.4 1-.3-.4-.7-1.4-.8-2.2-.1-.9 0-1.3.4-1 .3.4.7 1.4.8 2.2zm-26 1c.1.9 0 1.3-.4 1-.3-.4-.7-1.4-.8-2.2-.1-.9 0-1.3.4-1 .3.4.7 1.4.8 2.2zm-8.2.3c.3.5-.2 1.5-1.2 2.2-1.5 1.2-1.6 1.2-.5-.2.7-.9 1-1.9.6-2.2-.3-.4-.4-.7 0-.7.3 0 .8.4 1.1.9zm22.2.3c.3.4-.1.5-1 .4-.8-.1-1.8-.5-2.2-.8-.3-.4.1-.5 1-.4.8.1 1.8.5 2.2.8zm6 .3c-.1.8-.5 1.7-.8 2.1-.5.4-.4-1.6.1-3.4.3-.9.9.1.7 1.3zm12 0c-.1.8-.5 1.7-.8 2.1-.5.4-.4-1.6.1-3.4.3-.9.9.1.7 1.3zm52.4-.9c0 .8-1.9 1.3-2.4.6-.3-.5.1-.9.9-.9s1.5.2 1.5.3zm11.6 4c.1.9 0 1.3-.4 1-.3-.4-.7-1.4-.8-2.2-.1-.9 0-1.3.4-1 .3.4.7 1.4.8 2.2zm-24.1-.7c.3.5.2 1.2-.3 1.5-.5.3-.9-.1-.9-.9 0-1.7.3-1.9 1.2-.6zm-67.9 1.3c.3.4-.1.5-1 .4-.8-.1-1.8-.5-2.2-.8-.3-.4.1-.5 1-.4.8.1 1.8.5 2.2.8zm5.4-.6c0 .8-1.9 1.3-2.4.6-.3-.5.1-.9.9-.9s1.5.2 1.5.3zm36.6.6c.3.4-.1.5-1 .4-.8-.1-1.8-.5-2.2-.8-.3-.4.1-.5 1-.4.8.1 1.8.5 2.2.8zm34 .3c-.1.8-.5 1.7-.8 2.1-.5.4-.4-1.6.1-3.4.3-.9.9.1.7 1.3zm20.4-.9c0 .8-1.9 1.3-2.4.6-.3-.5.1-.9.9-.9s1.5.2 1.5.3zm5.1 1.1c1.2 1.6 1.2 1.7-.2.6-.9-.7-2-.9-2.4-.5-.5.4-.5.1-.1-.6.9-1.6 1.1-1.5 2.7.5zm10.5-.5c.3.4-.1.5-1 .4-.8-.1-1.8-.5-2.2-.8-.3-.4.1-.5 1-.4.8.1 1.8.5 2.2.8zm5.4-.6c0 .8-1.9 1.3-2.4.6-.3-.5.1-.9.9-.9s1.5.2 1.5.3zm-55.4 3c.1.9 0 1.3-.4 1-.3-.4-.7-1.4-.8-2.2-.1-.9 0-1.3.4-1 .3.4.7 1.4.8 2.2zm-50 1c.1.9 0 1.3-.4 1-.3-.4-.7-1.4-.8-2.2-.1-.9 0-1.3.4-1 .3.4.7 1.4.8 2.2zm8-1.1c-.1.8-.5 1.7-.8 2.1-.5.4-.4-1.6.1-3.4.3-.9.9.1.7 1.3zm4 0c-.1.8-.5 1.7-.8 2.1-.5.4-.4-1.6.1-3.4.3-.9.9.1.7 1.3zm84 0c-.1.8-.5 1.7-.8 2.1-.5.4-.4-1.6.1-3.4.3-.9.9.1.7 1.3zm-110 1.7c.3.4-.1.5-1 .4-.8-.1-1.8-.5-2.2-.8-.3-.4.1-.5 1-.4.8.1 1.8.5 2.2.8zm37.9-.3c-.9.8-3.6 1-3 .2.2-.4 1.1-.8 2-.8.8 0 1.3.3 1 .6zm12.1.3c.3.4-.1.5-1 .4-.8-.1-1.8-.5-2.2-.8-.3-.4.1-.5 1-.4.8.1 1.8.5 2.2.8zm8 1.7c0 1.7-.3 2.8-.6 2.6-.5-.3-.6-3.8-.1-5.3.4-1 .7.3.7 2.7zm12.1-1.4c0 .8-.4 1.2-.9.9-.5-.3-.6-1-.3-1.5.9-1.3 1.2-1.1 1.2.6zm15.8-.6c-.9.8-3.6 1-3 .2.2-.4 1.1-.8 2-.8.8 0 1.3.3 1 .6zm7.9 0c.3.5-.2 1.5-1.2 2.2-1.5 1.2-1.6 1.2-.5-.2.7-.9 1-1.9.6-2.2-.3-.4-.4-.7 0-.7.3 0 .8.4 1.1.9zm-4.9 2.1c-.3.5-1.2 1-1.8 1-.7 0-.6-.4.3-1 1.9-1.2 2.3-1.2 1.5 0zm28.5-.4c0 .8-1.9 1.3-2.4.6-.3-.5.1-.9.9-.9s1.5.2 1.5.3zm-115.4 4c.1.9 0 1.3-.4 1-.3-.4-.7-1.4-.8-2.2-.1-.9 0-1.3.4-1 .3.4.7 1.4.8 2.2zm16 0c.1.9 0 1.3-.4 1-.3-.4-.7-1.4-.8-2.2-.1-.9 0-1.3.4-1 .3.4.7 1.4.8 2.2zm19.9-1.7c-.9.8-3.6 1-3 .2.2-.4 1.1-.8 2-.8.8 0 1.3.3 1 .6zm6.1.3c.3.4-.1.5-1 .4-.8-.1-1.8-.5-2.2-.8-.3-.4.1-.5 1-.4.8.1 1.8.5 2.2.8zm29.9-.3c-.9.8-3.6 1-3 .2.2-.4 1.1-.8 2-.8.8 0 1.3.3 1 .6zm6 0c-.9.8-3.6 1-3 .2.2-.4 1.1-.8 2-.8.8 0 1.3.3 1 .6zm18.1 1.7c.1.9 0 1.3-.4 1-.3-.4-.7-1.4-.8-2.2-.1-.9 0-1.3.4-1 .3.4.7 1.4.8 2.2zm-48 2c.1.9 0 1.3-.4 1-.3-.4-.7-1.4-.8-2.2-.1-.9 0-1.3.4-1 .3.4.7 1.4.8 2.2zm-40.2.2c.3.5-.1.9-.9.9s-1.2-.4-.9-.9c.3-.4.7-.8.9-.8.2 0 .6.4.9.8zm5.6-.2c0 .8-1.9 1.3-2.4.6-.3-.5.1-.9.9-.9s1.5.2 1.5.3zm10.4.2c.3.5-.1.9-.9.9s-1.2-.4-.9-.9c.3-.4.7-.8.9-.8.2 0 .6.4.9.8zm6.6-.3c0 .7-3 1.3-3.4.7-.3-.4.4-.9 1.5-.9 1-.1 1.9 0 1.9.2zm25.5.4c.3.5.2 1.2-.3 1.5-.5.3-.9-.1-.9-.9 0-1.7.3-1.9 1.2-.6zm10 0c-.9.8-3.6 1-3 .2.2-.4 1.1-.8 2-.8.8 0 1.3.3 1 .6zm14.1 1.7c.1.9 0 1.3-.4 1-.3-.4-.7-1.4-.8-2.2-.1-.9 0-1.3.4-1 .3.4.7 1.4.8 2.2zm4.4-2c0 .8-1.9 1.3-2.4.6-.3-.5.1-.9.9-.9s1.5.2 1.5.3zm5.6.6c.3.4-.1.5-1 .4-.8-.1-1.8-.5-2.2-.8-.3-.4.1-.5 1-.4.8.1 1.8.5 2.2.8zm13.8-.4c.3.5-.1.9-.9.9s-1.2-.4-.9-.9c.3-.4.7-.8.9-.8.2 0 .6.4.9.8zm-28.8 2.4c.3.4-.1.5-1 .4-.8-.1-1.8-.5-2.2-.8-.3-.4.1-.5 1-.4.8.1 1.8.5 2.2.8zm-55 2c.3.4-.1.5-1 .4-.8-.1-1.8-.5-2.2-.8-.3-.4.1-.5 1-.4.8.1 1.8.5 2.2.8zm20 0c.4.7.4 1-.1.6-.4-.4-1.5-.2-2.4.5-1.4 1.1-1.4 1-.2-.6 1.6-2 1.8-2.1 2.7-.5zm5.4-.6c0 .8-1.9 1.3-2.4.6-.3-.5.1-.9.9-.9s1.5.2 1.5.3zm6.7 1.6c.2 1.7 0 1.9-.7.8-.5-.8-.6-1.8-.4-2.2.8-1.2 1-1 1.1 1.4zm13.8-1.3c-.9.8-3.6 1-3 .2.2-.4 1.1-.8 2-.8.8 0 1.3.3 1 .6zm-33.9 3.7c.1.9 0 1.3-.4 1-.3-.4-.7-1.4-.8-2.2-.1-.9 0-1.3.4-1 .3.4.7 1.4.8 2.2zm52 0c.1.9 0 1.3-.4 1-.3-.4-.7-1.4-.8-2.2-.1-.9 0-1.3.4-1 .3.4.7 1.4.8 2.2zm4 0c.1.9 0 1.3-.4 1-.3-.4-.7-1.4-.8-2.2-.1-.9 0-1.3.4-1 .3.4.7 1.4.8 2.2zm-60 .9c-.1.8-.5 1.7-.8 2.1-.5.4-.4-1.6.1-3.4.3-.9.9.1.7 1.3zm32-.3c.3.4-.1.5-1 .4-.8-.1-1.8-.5-2.2-.8-.3-.4.1-.5 1-.4.8.1 1.8.5 2.2.8zm11.9-.3c-.9.8-3.6 1-3 .2.2-.4 1.1-.8 2-.8.8 0 1.3.3 1 .6zm4.9-.1c.3.5-.1.9-.9.9s-1.2-.4-.9-.9c.3-.4.7-.8.9-.8.2 0 .6.4.9.8zm-28.9 3.4c.5-.4.5-.1.1.6-.6 1-1.1 1-2.2.1-.8-.6-1.4-1.4-1.4-1.6 0-.3.6 0 1.3.6.8.6 1.8.7 2.2.3zm8.2.3c0 .8-.4 1.2-.9.9-.5-.3-.6-1-.3-1.5.9-1.3 1.2-1.1 1.2.6zm12 0c0 .8-.4 1.2-.9.9-.5-.3-.6-1-.3-1.5.9-1.3 1.2-1.1 1.2.6zm-32.1 1c-.1.8-.5 1.7-.8 2.1-.5.4-.4-1.6.1-3.4.3-.9.9.1.7 1.3zm4 0c-.1.8-.5 1.7-.8 2.1-.5.4-.4-1.6.1-3.4.3-.9.9.1.7 1.3zm22 1c-.1.8-.5 1.7-.8 2.1-.5.4-.4-1.6.1-3.4.3-.9.9.1.7 1.3zm12.9.5c.3.6-.1.7-.9.4-1.8-.7-2.1-1.4-.7-1.4.6 0 1.3.4 1.6 1z"/><path d="M33 345.1c-8.3 3.4-12.2 14.4-7.7 22.3 3.1 5.6 6.7 7.9 13 8.4 9.7.8 16.8-5.9 17-15.8.3-11.2-11.6-19.1-22.3-14.9zM192.4 345.4c-1.7.8-4.4 3.1-6 5.1-2.4 3.2-2.9 4.8-2.9 9.5s.5 6.3 2.9 9.5c9.1 11.9 27.6 6.6 29.1-8.4.5-5-2.4-11.2-6.5-14.1-4.1-2.9-12.1-3.7-16.6-1.6zM351.4 345.8c-5.4 3.4-7.9 7.9-7.9 14.3 0 20.4 29.9 21.4 32 1 .5-5-2.4-11.2-6.6-14.1-4.5-3.3-13.2-3.9-17.5-1.2z"/></svg>